<?xml version="1.0" standalone="no"?><!-- Generator: Gravit.io --><svg xmlns="http://www.w3.org/2000/svg" xmlns:xlink="http://www.w3.org/1999/xlink" style="isolation:isolate" width="80" height="80"><circle vector-effect="non-scaling-stroke" cx="0" cy="0" r="1" fill="rgb(199,199,203)" transform="matrix(40,0,0,40,40,40)" stroke-width="1" stroke="rgba(0,0,0,0)"/><rect x="13" y="19" width="54" height="43" transform="matrix(1,0,0,1,0,0)" fill="rgb(255,255,255)" stroke-width="2.083333333333334" stroke="rgba(0,0,0,0)" stroke-linejoin="miter" stroke-linecap="butt"/><path d=" M 64 16.000000000000004 L 16 16.000000000000004 C 12.685 16.000000000000004 10.03 18.685000000000002 10.03 22.000000000000004 L 10 58 C 10 61.315 12.685 64 16 64 L 64 64 C 67.315 64 70 61.315 70 58 L 70 22.000000000000004 C 70 18.685000000000002 67.315 16.000000000000004 64 16.000000000000004 Z  M 64 58 L 16 58 L 16 28.000000000000004 L 40 43 L 64 28.000000000000004 L 64 58 Z  M 40 37 L 16 22.000000000000004 L 64 22.000000000000004 L 40 37 Z " fill-rule="evenodd" fill="rgb(199,199,203)" stroke-width="2.083333333333334" stroke="rgba(0,0,0,0)" stroke-linejoin="miter" stroke-linecap="butt"/></svg>