<?xml version="1.0" standalone="no"?><!-- Generator: Gravit.io --><svg xmlns="http://www.w3.org/2000/svg" xmlns:xlink="http://www.w3.org/1999/xlink" style="isolation:isolate" viewBox="0 0 50 50" width="50" height="50"><defs><clipPath id="_clipPath_P4eYp7Hrw6thn7xsZn4cHMBCskTIF07t"><rect width="50" height="50"/></clipPath></defs><g clip-path="url(#_clipPath_P4eYp7Hrw6thn7xsZn4cHMBCskTIF07t)"><path d=" M 0 25 C 0 11.202 11.202 0 25 0 C 38.798 0 50 11.202 50 25 C 50 38.798 38.798 50 25 50 C 11.202 50 0 38.798 0 25 Z " fill="rgb(255,255,255)"/><path d=" M 25 4.753 C 19.862 4.753 15.683 8.933 15.683 14.071 L 15.683 16.4 L 17.235 16.4 L 17.235 14.071 C 17.235 9.788 20.717 6.306 25 6.306 C 29.283 6.306 32.765 9.788 32.765 14.071 L 32.765 16.4 L 34.317 16.4 L 34.317 14.071 C 34.317 8.933 30.138 4.753 25 4.753 Z  M 12.577 17.953 C 11.294 17.953 10.247 19 10.247 20.282 L 10.247 38.917 C 10.247 40.2 11.294 41.247 12.577 41.247 L 37.423 41.247 C 38.706 41.247 39.753 40.2 39.753 38.917 L 39.753 20.282 C 39.753 19 38.706 17.953 37.423 17.953 L 12.577 17.953 Z  M 25 24.165 C 28.003 24.165 30.435 26.597 30.435 29.6 C 30.435 32.602 28.003 35.035 25 35.035 C 21.997 35.035 19.565 32.602 19.565 29.6 C 19.565 26.597 21.997 24.165 25 24.165 Z  M 25 26.494 C 23.292 26.494 21.894 27.892 21.894 29.6 C 21.894 31.308 23.292 32.706 25 32.706 C 26.708 32.706 28.106 31.308 28.106 29.6 C 28.106 29.291 28.039 28.986 27.96 28.677 C 27.716 29.237 27.163 29.599 26.553 29.6 C 25.697 29.6 25 28.903 25 28.047 C 25 27.426 25.379 26.873 25.922 26.639 C 25.613 26.561 25.309 26.494 25 26.494 Z " fill="rgb(0,0,0)"/></g></svg>