<?xml version="1.0" encoding="UTF-8" standalone="no"?><!-- Generator: Gravit.io --><svg xmlns="http://www.w3.org/2000/svg" xmlns:xlink="http://www.w3.org/1999/xlink" style="isolation:isolate" viewBox="0 0 50 50" width="50pt" height="50pt"><defs><clipPath id="_clipPath_e8CH70hcqEk2wwyNlQUJVIXY0to5LPpr"><rect width="50" height="50"/></clipPath></defs><g clip-path="url(#_clipPath_e8CH70hcqEk2wwyNlQUJVIXY0to5LPpr)"><path d=" M 24.682 48.946 C 24.352 48.857 24.073 48.61 23.971 48.251 L 22.472 42.623 C 24.181 42.714 25.895 42.714 27.604 42.623 L 26.105 48.251 C 25.978 48.745 25.495 48.991 25.038 48.991 C 24.911 49.014 24.784 48.991 24.682 48.946 L 24.682 48.946 Z  M 25.013 36.882 C 23.692 36.882 22.37 36.815 21.151 36.726 C 21.049 36.726 20.947 36.726 20.871 36.748 L 18.813 29.034 C 20.668 29.326 22.802 29.483 25.038 29.483 C 27.274 29.483 29.408 29.326 31.263 29.034 L 29.205 36.748 C 29.129 36.726 29.053 36.726 28.951 36.726 C 27.681 36.815 26.359 36.882 25.013 36.882 L 25.013 36.882 Z  M 25.013 23.63 C 22.218 23.63 19.55 23.383 17.543 22.935 C 17.416 22.913 17.289 22.913 17.162 22.935 L 14.672 13.674 C 15.231 13.898 15.891 14.1 16.628 14.28 C 18.889 14.818 21.862 15.109 24.987 15.109 C 26.029 15.109 27.02 15.087 28.011 15.02 L 28.011 17.06 C 28.011 17.284 28.214 17.464 28.468 17.464 C 28.722 17.464 28.925 17.284 28.925 17.06 L 28.925 14.952 C 29.408 14.907 29.891 14.863 30.348 14.795 L 30.348 20.424 C 30.348 20.648 30.552 20.827 30.831 20.827 C 31.085 20.827 31.288 20.648 31.288 20.424 L 31.288 14.683 C 32 14.571 32.686 14.436 33.321 14.302 C 34.058 14.123 34.718 13.921 35.277 13.697 L 32.787 22.957 C 32.66 22.935 32.559 22.935 32.432 22.957 C 30.501 23.383 27.833 23.63 25.013 23.63 L 25.013 23.63 Z  M 36.116 10.692 C 36.116 10.804 36.09 10.894 36.04 11.006 C 35.633 11.813 33.728 12.486 30.958 12.912 C 30.882 12.912 30.831 12.934 30.755 12.934 C 30.729 12.934 30.679 12.934 30.653 12.957 C 30.12 13.024 29.535 13.091 28.925 13.158 L 28.773 13.158 C 28.544 13.181 28.29 13.203 28.036 13.203 C 27.071 13.27 26.054 13.293 24.987 13.293 L 24.454 13.293 C 24.098 13.293 23.768 13.27 23.412 13.27 L 21.913 13.203 C 17.848 12.934 14.748 12.127 14.037 11.118 C 14.011 11.073 13.986 11.028 13.96 11.006 C 13.91 10.916 13.884 10.804 13.884 10.692 C 13.884 10.288 14.265 9.907 14.977 9.548 L 18.788 6.7 L 21.583 4.593 L 23.234 3.337 C 23.158 3.18 23.133 3 23.133 2.799 C 23.131 2.066 23.682 1.422 24.481 1.223 C 26.321 0.298 28.165 2.477 27.28 3.587 L 27.172 3.651 L 29.561 5.445 L 31.212 6.678 L 35.023 9.526 C 35.709 9.907 36.116 10.288 36.116 10.692 L 36.116 10.692 Z  M 28.824 6.431 L 27.528 5.467 L 25.927 4.256 C 25.673 4.368 25.368 4.458 25.064 4.458 C 24.733 4.458 24.428 4.391 24.174 4.256 L 22.548 5.489 L 21.252 6.454 L 18.356 8.629 C 19.093 8.494 19.906 8.382 20.77 8.292 C 21.075 8.27 21.379 8.225 21.684 8.203 C 22.218 8.158 22.777 8.135 23.336 8.113 C 23.895 8.091 24.454 8.091 25.013 8.091 C 26.537 8.091 28.011 8.158 29.332 8.292 C 29.51 8.315 29.662 8.337 29.815 8.337 C 30.145 8.382 30.45 8.405 30.755 8.449 L 31.212 8.517 C 31.365 8.539 31.542 8.562 31.695 8.606 L 28.824 6.431 L 28.824 6.431 Z " fill="rgb(168,9,9)"/><line x1="25.172" y1="3.879" x2="25.259" y2="28.017" vector-effect="non-scaling-stroke" stroke-width="1" stroke="rgb(168,9,9)" stroke-linejoin="miter" stroke-linecap="square" stroke-miterlimit="3"/></g></svg>