<?xml version="1.0" encoding="UTF-8" standalone="no"?><!-- Generator: Gravit.io --><svg xmlns="http://www.w3.org/2000/svg" xmlns:xlink="http://www.w3.org/1999/xlink" style="isolation:isolate" viewBox="0 0 50 50" width="50pt" height="50pt"><defs><clipPath id="_clipPath_HYzPwFDM0WTlgigPQdE0CEaCj9fULgEY"><rect width="50" height="50"/></clipPath></defs><g clip-path="url(#_clipPath_HYzPwFDM0WTlgigPQdE0CEaCj9fULgEY)"><path d=" M 7.843 41.708 C 7.673 41.411 7.649 41.039 7.831 40.713 L 10.751 35.674 C 11.895 36.947 13.107 38.159 14.38 39.303 L 9.34 42.223 C 8.902 42.482 8.386 42.315 8.063 41.991 C 7.957 41.917 7.883 41.812 7.843 41.708 L 7.843 41.708 Z  M 16.607 33.411 C 15.673 32.477 14.786 31.495 13.987 30.569 C 13.915 30.497 13.843 30.426 13.773 30.388 L 17.773 23.478 C 18.878 24.996 20.276 26.616 21.857 28.197 C 23.438 29.778 25.058 31.176 26.576 32.281 L 19.666 36.28 C 19.628 36.211 19.574 36.157 19.503 36.085 C 18.541 35.25 17.559 34.363 16.607 33.411 L 16.607 33.411 Z  M 25.978 24.04 C 24.001 22.064 22.289 20.003 21.187 18.267 C 21.113 18.161 21.023 18.071 20.918 17.997 L 25.705 9.688 C 25.942 10.242 26.267 10.852 26.661 11.5 C 27.879 13.479 29.775 15.787 31.985 17.997 C 32.721 18.734 33.438 19.419 34.186 20.072 L 32.743 21.515 C 32.585 21.673 32.602 21.944 32.781 22.123 C 32.961 22.303 33.232 22.32 33.39 22.161 L 34.881 20.671 C 35.254 20.981 35.627 21.29 35.998 21.566 L 32.018 25.546 C 31.859 25.704 31.876 25.975 32.074 26.173 C 32.253 26.352 32.524 26.369 32.683 26.211 L 36.742 22.151 C 37.324 22.575 37.904 22.965 38.448 23.319 C 39.096 23.713 39.706 24.038 40.26 24.274 L 31.951 29.062 C 31.877 28.957 31.805 28.885 31.699 28.811 C 30.033 27.747 27.972 26.035 25.978 24.04 L 25.978 24.04 Z  M 42.978 22.743 C 42.898 22.822 42.817 22.867 42.702 22.911 C 41.843 23.194 40.02 22.322 37.761 20.665 C 37.707 20.611 37.655 20.591 37.601 20.537 C 37.583 20.519 37.547 20.484 37.513 20.481 C 37.089 20.152 36.628 19.786 36.149 19.402 L 36.041 19.295 C 35.864 19.149 35.668 18.985 35.489 18.805 C 34.758 18.17 34.024 17.467 33.269 16.713 L 32.892 16.336 C 32.64 16.084 32.423 15.835 32.171 15.583 L 31.159 14.476 C 28.474 11.411 26.853 8.648 27.064 7.432 C 27.078 7.382 27.091 7.332 27.089 7.298 C 27.117 7.199 27.178 7.102 27.257 7.022 C 27.543 6.737 28.082 6.737 28.839 6.986 L 33.547 7.668 L 37.014 8.153 L 39.07 8.433 C 39.127 8.268 39.236 8.124 39.378 7.981 C 39.895 7.461 40.74 7.396 41.446 7.82 C 43.401 8.467 43.164 11.311 41.754 11.471 L 41.632 11.44 L 42.053 14.397 L 42.348 16.437 L 43.029 21.146 C 43.245 21.9 43.263 22.457 42.978 22.743 L 42.978 22.743 Z  M 40.834 14.574 L 40.599 12.976 L 40.324 10.988 C 40.065 10.887 39.786 10.735 39.57 10.52 C 39.337 10.286 39.169 10.023 39.084 9.748 L 37.062 9.47 L 35.464 9.236 L 31.878 8.726 C 32.494 9.152 33.148 9.647 33.823 10.195 C 34.054 10.394 34.301 10.578 34.533 10.778 C 34.942 11.124 35.353 11.503 35.764 11.882 C 36.175 12.262 36.57 12.657 36.966 13.052 C 38.044 14.13 39.038 15.22 39.877 16.249 C 39.987 16.391 40.079 16.514 40.187 16.622 C 40.389 16.887 40.588 17.119 40.772 17.366 L 41.048 17.737 C 41.14 17.861 41.25 18.002 41.326 18.142 L 40.834 14.574 L 40.834 14.574 Z " fill="rgb(168,9,9)"/><line x1="41.138" y1="10.431" x2="41.224" y2="34.569" vector-effect="non-scaling-stroke" stroke-width="1" stroke="rgb(168,9,9)" stroke-linejoin="miter" stroke-linecap="square" stroke-miterlimit="3"/></g></svg>