<?xml version="1.0" standalone="no"?><!-- Generator: Gravit.io --><svg xmlns="http://www.w3.org/2000/svg" xmlns:xlink="http://www.w3.org/1999/xlink" style="isolation:isolate" width="80" height="80"><circle vector-effect="non-scaling-stroke" cx="0" cy="0" r="1" fill="rgb(199,199,203)" transform="matrix(40,0,0,40,40,40)" stroke-width="1" stroke="rgba(0,0,0,0)"/><path d=" M 64 16.000000000000004 L 16 16.000000000000004 C 12.685 16.000000000000004 10.03 18.685000000000002 10.03 22.000000000000004 L 10 58 C 10 61.315 12.685 64 16 64 L 64 64 C 67.315 64 70 61.315 70 58 L 70 22.000000000000004 C 70 18.685000000000002 67.315 16.000000000000004 64 16.000000000000004 Z  M 64 58 L 16 58 L 16 28.000000000000004 L 40 43 L 64 28.000000000000004 L 64 58 Z  M 40 37 L 16 22.000000000000004 L 64 22.000000000000004 L 40 37 Z " fill-rule="evenodd" fill="rgb(199,199,203)" stroke-width="2.083333333333334" stroke="rgba(0,0,0,0)" stroke-linejoin="miter" stroke-linecap="butt"/><path d=" M 44.440533373320875 51.68585569656161 C 44.440533373320875 51.68585569656161 49.69739898847676 48.26889304671029 50.74877211150793 47.7432064851947 C 51.800145234539116 47.21751992367911 52.98293999794919 46.954676642921314 53.64004819984366 47.480363204436905 C 54.691421322874845 48.13747140633139 63.49667122826095 53.920023583002866 64.28520107053433 54.44571014451845 C 65.07373091280772 54.971396706034035 65.3365741935655 56.41703475020191 64.41662271091323 57.86267279436977 C 63.36524958788206 59.30831083853764 58.76549217462066 65.09086301520911 56.7941675689372 64.95944137483022 C 54.82284296325375 64.95944137483022 45.75474977710985 65.4851279363458 30.11557457202111 49.97737437163595 C 14.476399366932363 34.338199166547206 15.00208592844795 25.270105980403315 15.00208592844795 23.29878137471986 C 15.00208592844795 21.327456769036402 20.653216464740524 16.596277715396113 22.09885450890839 15.676326232743833 C 23.544492553076253 14.624953109712656 24.990130597244125 15.019218030849348 25.51581715875971 15.80774787312273 C 26.041503720275298 16.596277715396113 31.824055896946767 25.40152762078221 32.48116409884125 26.452900743813387 C 32.87542901997794 27.11000894570787 32.74400737959905 28.29280370911794 32.218320818083455 29.34417683214912 C 31.692634256567874 30.395549955180297 28.27567160671655 35.652415570336174 28.27567160671655 35.652415570336174 C 28.27567160671655 35.652415570336174 29.195623089368826 39.332221500945295 34.8467536256614 45.11477367761676 C 40.629305802332865 50.76590421390934 44.440533373320875 51.68585569656161 44.440533373320875 51.68585569656161 Z " fill="rgb(255,255,255)" stroke-width="2.083333333333334" stroke="rgba(0,0,0,0)" stroke-linejoin="miter" stroke-linecap="butt"/></svg>