<?xml version="1.0" standalone="no"?><!-- Generator: Gravit.io --><svg xmlns="http://www.w3.org/2000/svg" xmlns:xlink="http://www.w3.org/1999/xlink" style="isolation:isolate" viewBox="0 0 50 50" width="50" height="50"><path d=" M 0 25 C 0 11.202 11.202 0 25 0 C 38.798 0 50 11.202 50 25 C 50 38.798 38.798 50 25 50 C 11.202 50 0 38.798 0 25 Z " fill="rgb(255,255,255)"/><g id="null"><path d=" M 39.286 10.714 L 10.714 10.714 C 8.75 10.714 7.161 12.321 7.161 14.286 L 7.143 35.714 C 7.143 37.679 8.75 39.286 10.714 39.286 L 39.286 39.286 C 41.25 39.286 42.857 37.679 42.857 35.714 L 42.857 14.286 C 42.857 12.321 41.25 10.714 39.286 10.714 Z  M 39.286 35.714 L 10.714 35.714 L 10.714 17.857 L 25 26.786 L 39.286 17.857 L 39.286 35.714 Z  M 25 23.214 L 10.714 14.286 L 39.286 14.286 L 25 23.214 Z " fill="rgb(0,0,0)"/></g></svg>