<?xml version="1.0" standalone="no"?><!-- Generator: Gravit.io --><svg xmlns="http://www.w3.org/2000/svg" xmlns:xlink="http://www.w3.org/1999/xlink" style="isolation:isolate" viewBox="0 0 50 50" width="50" height="50"><path d=" M 0 25 C 0 11.202 11.202 0 25 0 C 38.798 0 50 11.202 50 25 C 50 38.798 38.798 50 25 50 C 11.202 50 0 38.798 0 25 Z " fill="rgb(255,255,255)"/><g id="null"><path d=" M 25 31.389 L 35.306 38.889 L 31.361 26.778 L 41.667 19.444 L 29.028 19.444 L 25 6.944 L 20.972 19.444 L 8.333 19.444 L 18.639 26.778 L 14.694 38.889 L 25 31.389 Z " fill="rgb(0,0,0)"/><path d=" M 0 0 L 50 0 L 50 50 L 0 50 L 0 0 Z " fill="none"/></g></svg>