<?xml version="1.0" standalone="no"?><!-- Generator: Gravit.io --><svg xmlns="http://www.w3.org/2000/svg" xmlns:xlink="http://www.w3.org/1999/xlink" style="isolation:isolate" viewBox="0 0 140 140" width="140" height="140"><path d=" M 0 70 C 0 31.366 31.366 0 70 0 C 108.634 0 140 31.366 140 70 C 140 108.634 108.634 140 70 140 C 31.366 140 0 108.634 0 70 Z " fill="rgb(255,255,255)"/><g id="null"><path d=" M 0 0 L 140 0 L 140 140 L 0 140 L 0 0 Z " fill="none"/><path d=" M 113.342 75.717 C 113.575 73.85 113.75 71.983 113.75 70 C 113.75 68.017 113.575 66.15 113.342 64.283 L 125.65 54.658 C 126.758 53.783 127.05 52.208 126.35 50.925 L 114.683 30.742 C 113.983 29.458 112.408 28.992 111.125 29.458 L 96.6 35.292 C 93.567 32.958 90.3 31.033 86.742 29.575 L 84.525 14.117 C 84.325 12.697 83.101 11.647 81.667 11.667 L 58.333 11.667 C 56.875 11.667 55.65 12.717 55.475 14.117 L 53.258 29.575 C 49.7 31.033 46.433 33.017 43.4 35.292 L 28.875 29.458 C 27.533 28.933 26.017 29.458 25.317 30.742 L 13.65 50.925 C 12.892 52.208 13.242 53.783 14.35 54.658 L 26.658 64.283 C 26.425 66.15 26.25 68.075 26.25 70 C 26.25 71.925 26.425 73.85 26.658 75.717 L 14.35 85.342 C 13.242 86.217 12.95 87.792 13.65 89.075 L 25.317 109.258 C 26.017 110.542 27.592 111.008 28.875 110.542 L 43.4 104.708 C 46.433 107.042 49.7 108.967 53.258 110.425 L 55.475 125.883 C 55.65 127.283 56.875 128.333 58.333 128.333 L 81.667 128.333 C 83.125 128.333 84.35 127.283 84.525 125.883 L 86.742 110.425 C 90.3 108.967 93.567 106.983 96.6 104.708 L 111.125 110.542 C 112.467 111.067 113.983 110.542 114.683 109.258 L 126.35 89.075 C 127.05 87.792 126.758 86.217 125.65 85.342 L 113.342 75.717 Z  M 70 90.417 C 58.742 90.417 49.583 81.258 49.583 70 C 49.583 58.742 58.742 49.583 70 49.583 C 81.258 49.583 90.417 58.742 90.417 70 C 90.417 81.258 81.258 90.417 70 90.417 Z " fill="rgb(0,0,0)"/></g></svg>