<?xml version="1.0" encoding="UTF-8" standalone="no"?><!-- Generator: Gravit.io --><svg xmlns="http://www.w3.org/2000/svg" xmlns:xlink="http://www.w3.org/1999/xlink" style="isolation:isolate" viewBox="0 0 50 50" width="50pt" height="50pt"><defs><clipPath id="_clipPath_h4SJKNhYb61JE4Q6Uya01piaXXLvwjaN"><rect width="50" height="50"/></clipPath></defs><g clip-path="url(#_clipPath_h4SJKNhYb61JE4Q6Uya01piaXXLvwjaN)"><path d=" M 1.054 24.682 C 1.143 24.352 1.39 24.073 1.749 23.971 L 7.377 22.472 C 7.286 24.181 7.286 25.895 7.377 27.604 L 1.749 26.105 C 1.255 25.978 1.009 25.495 1.009 25.038 C 0.986 24.911 1.009 24.784 1.054 24.682 L 1.054 24.682 Z  M 13.118 25.013 C 13.118 23.692 13.185 22.37 13.274 21.151 C 13.274 21.049 13.274 20.947 13.252 20.871 L 20.966 18.813 C 20.674 20.668 20.517 22.802 20.517 25.038 C 20.517 27.274 20.674 29.408 20.966 31.263 L 13.252 29.205 C 13.274 29.129 13.274 29.053 13.274 28.951 C 13.185 27.681 13.118 26.359 13.118 25.013 L 13.118 25.013 Z  M 26.37 25.013 C 26.37 22.218 26.617 19.55 27.065 17.543 C 27.087 17.416 27.087 17.289 27.065 17.162 L 36.326 14.672 C 36.102 15.231 35.9 15.891 35.72 16.628 C 35.182 18.889 34.891 21.862 34.891 24.987 C 34.891 26.029 34.913 27.02 34.98 28.011 L 32.94 28.011 C 32.716 28.011 32.536 28.214 32.536 28.468 C 32.536 28.722 32.716 28.925 32.94 28.925 L 35.048 28.925 C 35.093 29.408 35.137 29.891 35.205 30.348 L 29.576 30.348 C 29.352 30.348 29.173 30.552 29.173 30.831 C 29.173 31.085 29.352 31.288 29.576 31.288 L 35.317 31.288 C 35.429 32 35.564 32.686 35.698 33.321 C 35.877 34.058 36.079 34.718 36.303 35.277 L 27.043 32.787 C 27.065 32.66 27.065 32.559 27.043 32.432 C 26.617 30.501 26.37 27.833 26.37 25.013 L 26.37 25.013 Z  M 39.308 36.116 C 39.196 36.116 39.106 36.09 38.994 36.04 C 38.187 35.633 37.514 33.728 37.088 30.958 C 37.088 30.882 37.066 30.831 37.066 30.755 C 37.066 30.729 37.066 30.679 37.043 30.653 C 36.976 30.12 36.909 29.535 36.842 28.925 L 36.842 28.773 C 36.819 28.544 36.797 28.29 36.797 28.036 C 36.73 27.071 36.707 26.054 36.707 24.987 L 36.707 24.454 C 36.707 24.098 36.73 23.768 36.73 23.412 L 36.797 21.913 C 37.066 17.848 37.873 14.748 38.882 14.037 C 38.927 14.011 38.972 13.986 38.994 13.96 C 39.084 13.91 39.196 13.884 39.308 13.884 C 39.712 13.884 40.093 14.265 40.452 14.977 L 43.3 18.788 L 45.407 21.583 L 46.663 23.234 C 46.82 23.158 47 23.133 47.201 23.133 C 47.934 23.131 48.578 23.682 48.777 24.481 C 49.702 26.321 47.523 28.165 46.413 27.28 L 46.349 27.172 L 44.555 29.561 L 43.322 31.212 L 40.474 35.023 C 40.093 35.709 39.712 36.116 39.308 36.116 L 39.308 36.116 Z  M 43.569 28.824 L 44.533 27.528 L 45.744 25.927 C 45.632 25.673 45.542 25.368 45.542 25.064 C 45.542 24.733 45.609 24.428 45.744 24.174 L 44.511 22.548 L 43.546 21.252 L 41.371 18.356 C 41.506 19.093 41.618 19.906 41.708 20.77 C 41.73 21.075 41.775 21.379 41.797 21.684 C 41.842 22.218 41.865 22.777 41.887 23.336 C 41.909 23.895 41.909 24.454 41.909 25.013 C 41.909 26.537 41.842 28.011 41.708 29.332 C 41.685 29.51 41.663 29.662 41.663 29.815 C 41.618 30.145 41.595 30.45 41.551 30.755 L 41.483 31.212 C 41.461 31.365 41.438 31.542 41.394 31.695 L 43.569 28.824 L 43.569 28.824 Z " fill="rgb(168,9,9)"/><line x1="49.414" y1="25" x2="49.5" y2="49.138" vector-effect="non-scaling-stroke" stroke-width="1" stroke="rgb(168,9,9)" stroke-linejoin="miter" stroke-linecap="square" stroke-miterlimit="3"/></g></svg>