<?xml version="1.0" encoding="UTF-8" standalone="no"?><!-- Generator: Gravit.io --><svg xmlns="http://www.w3.org/2000/svg" xmlns:xlink="http://www.w3.org/1999/xlink" style="isolation:isolate" viewBox="0 0 50 50" width="50pt" height="50pt"><defs><clipPath id="_clipPath_G1yEykLHk3FAbLuT5K1hJLoqbEiO5yPM"><rect width="50" height="50"/></clipPath></defs><g clip-path="url(#_clipPath_G1yEykLHk3FAbLuT5K1hJLoqbEiO5yPM)"><path d=" M 42.157 41.708 C 42.327 41.411 42.351 41.039 42.169 40.713 L 39.249 35.674 C 38.105 36.947 36.893 38.159 35.62 39.303 L 40.66 42.223 C 41.098 42.482 41.614 42.315 41.937 41.991 C 42.043 41.917 42.117 41.812 42.157 41.708 L 42.157 41.708 Z  M 33.393 33.411 C 34.327 32.477 35.214 31.495 36.013 30.569 C 36.085 30.497 36.157 30.426 36.227 30.388 L 32.227 23.478 C 31.122 24.996 29.724 26.616 28.143 28.197 C 26.562 29.778 24.942 31.176 23.424 32.281 L 30.334 36.28 C 30.372 36.211 30.426 36.157 30.497 36.085 C 31.459 35.25 32.441 34.363 33.393 33.411 L 33.393 33.411 Z  M 24.022 24.04 C 25.999 22.064 27.711 20.003 28.813 18.267 C 28.887 18.161 28.977 18.071 29.082 17.997 L 24.295 9.688 C 24.058 10.242 23.733 10.852 23.339 11.5 C 22.121 13.479 20.225 15.787 18.015 17.997 C 17.279 18.734 16.562 19.419 15.814 20.072 L 17.257 21.515 C 17.415 21.673 17.398 21.944 17.219 22.123 C 17.039 22.303 16.768 22.32 16.61 22.161 L 15.119 20.671 C 14.746 20.981 14.373 21.29 14.002 21.566 L 17.982 25.546 C 18.141 25.704 18.124 25.975 17.926 26.173 C 17.747 26.352 17.476 26.369 17.317 26.211 L 13.258 22.151 C 12.676 22.575 12.096 22.965 11.552 23.319 C 10.904 23.713 10.294 24.038 9.74 24.274 L 18.049 29.062 C 18.123 28.957 18.195 28.885 18.301 28.811 C 19.967 27.747 22.028 26.035 24.022 24.04 L 24.022 24.04 Z  M 7.022 22.743 C 7.102 22.822 7.183 22.867 7.298 22.911 C 8.157 23.194 9.98 22.322 12.239 20.665 C 12.293 20.611 12.345 20.591 12.399 20.537 C 12.417 20.519 12.453 20.484 12.487 20.481 C 12.911 20.152 13.372 19.786 13.851 19.402 L 13.959 19.295 C 14.136 19.149 14.332 18.985 14.511 18.805 C 15.242 18.17 15.976 17.467 16.731 16.713 L 17.108 16.336 C 17.36 16.084 17.577 15.835 17.829 15.583 L 18.841 14.476 C 21.526 11.411 23.147 8.648 22.936 7.432 C 22.922 7.382 22.909 7.332 22.911 7.298 C 22.883 7.199 22.822 7.102 22.743 7.022 C 22.457 6.737 21.918 6.737 21.161 6.986 L 16.453 7.668 L 12.986 8.153 L 10.93 8.433 C 10.873 8.268 10.764 8.124 10.622 7.981 C 10.105 7.461 9.26 7.396 8.554 7.82 C 6.599 8.467 6.836 11.311 8.246 11.471 L 8.368 11.44 L 7.947 14.397 L 7.652 16.437 L 6.971 21.146 C 6.755 21.9 6.737 22.457 7.022 22.743 L 7.022 22.743 Z  M 9.166 14.574 L 9.401 12.976 L 9.676 10.988 C 9.935 10.887 10.214 10.735 10.43 10.52 C 10.663 10.286 10.831 10.023 10.916 9.748 L 12.938 9.47 L 14.536 9.236 L 18.122 8.726 C 17.506 9.152 16.852 9.647 16.177 10.195 C 15.946 10.394 15.699 10.578 15.467 10.778 C 15.058 11.124 14.647 11.503 14.236 11.882 C 13.825 12.262 13.43 12.657 13.034 13.052 C 11.956 14.13 10.962 15.22 10.123 16.249 C 10.013 16.391 9.921 16.514 9.813 16.622 C 9.611 16.887 9.412 17.119 9.228 17.366 L 8.952 17.737 C 8.86 17.861 8.75 18.002 8.674 18.142 L 9.166 14.574 L 9.166 14.574 Z " fill="rgb(168,9,9)"/><line x1="9" y1="12.155" x2="9" y2="31.897" vector-effect="non-scaling-stroke" stroke-width="1" stroke="rgb(168,9,9)" stroke-linejoin="miter" stroke-linecap="square" stroke-miterlimit="3"/></g></svg>