<?xml version="1.0" encoding="UTF-8" standalone="no"?><!-- Generator: Gravit.io --><svg xmlns="http://www.w3.org/2000/svg" xmlns:xlink="http://www.w3.org/1999/xlink" style="isolation:isolate" viewBox="0 0 50 50" width="50pt" height="50pt"><defs><clipPath id="_clipPath_nVigkZlmO77pHnMzsQ3EydR7fPzK2gzV"><rect width="50" height="50"/></clipPath></defs><g clip-path="url(#_clipPath_nVigkZlmO77pHnMzsQ3EydR7fPzK2gzV)"><path d=" M 26.382 0.648 C 26.712 0.738 26.992 0.984 27.093 1.343 L 28.592 6.971 C 26.883 6.88 25.169 6.88 23.46 6.971 L 24.959 1.343 C 25.086 0.85 25.569 0.603 26.026 0.603 C 26.153 0.581 26.28 0.603 26.382 0.648 L 26.382 0.648 Z  M 26.052 12.712 C 27.373 12.712 28.694 12.779 29.914 12.869 C 30.015 12.869 30.117 12.869 30.193 12.846 L 32.251 20.56 C 30.396 20.268 28.262 20.112 26.026 20.112 C 23.79 20.112 21.656 20.268 19.801 20.56 L 21.859 12.846 C 21.936 12.869 22.012 12.869 22.114 12.869 C 23.384 12.779 24.705 12.712 26.052 12.712 L 26.052 12.712 Z  M 26.052 25.964 C 28.847 25.964 31.514 26.211 33.522 26.659 C 33.649 26.682 33.776 26.682 33.903 26.659 L 36.393 35.92 C 35.834 35.696 35.173 35.494 34.436 35.315 C 32.175 34.777 29.202 34.485 26.077 34.485 C 25.035 34.485 24.044 34.507 23.054 34.575 L 23.054 32.534 C 23.054 32.31 22.85 32.131 22.596 32.131 C 22.342 32.131 22.139 32.31 22.139 32.534 L 22.139 34.642 C 21.656 34.687 21.173 34.732 20.716 34.799 L 20.716 29.171 C 20.716 28.946 20.513 28.767 20.233 28.767 C 19.979 28.767 19.776 28.946 19.776 29.171 L 19.776 34.911 C 19.065 35.023 18.379 35.158 17.743 35.292 C 17.007 35.472 16.346 35.673 15.787 35.898 L 18.277 26.637 C 18.404 26.659 18.506 26.659 18.633 26.637 C 20.564 26.211 23.231 25.964 26.052 25.964 L 26.052 25.964 Z  M 14.949 38.902 C 14.949 38.79 14.974 38.701 15.025 38.589 C 15.431 37.781 17.337 37.109 20.106 36.683 C 20.183 36.683 20.233 36.66 20.31 36.66 C 20.335 36.66 20.386 36.66 20.411 36.638 C 20.945 36.57 21.529 36.503 22.139 36.436 L 22.291 36.436 C 22.52 36.413 22.774 36.391 23.028 36.391 C 23.994 36.324 25.01 36.301 26.077 36.301 L 26.611 36.301 C 26.966 36.301 27.297 36.324 27.652 36.324 L 29.151 36.391 C 33.217 36.66 36.316 37.467 37.028 38.476 C 37.053 38.521 37.079 38.566 37.104 38.589 C 37.155 38.678 37.18 38.79 37.18 38.902 C 37.18 39.306 36.799 39.687 36.088 40.046 L 32.277 42.894 L 29.482 45.002 L 27.83 46.257 C 27.906 46.414 27.932 46.594 27.932 46.796 C 27.934 47.528 27.382 48.172 26.583 48.371 C 24.744 49.296 22.9 47.117 23.784 46.007 L 23.892 45.943 L 21.504 44.15 L 19.852 42.916 L 16.041 40.068 C 15.355 39.687 14.949 39.306 14.949 38.902 L 14.949 38.902 Z  M 22.241 43.163 L 23.536 44.127 L 25.137 45.338 C 25.391 45.226 25.696 45.136 26.001 45.136 C 26.331 45.136 26.636 45.203 26.89 45.338 L 28.516 44.105 L 29.812 43.141 L 32.708 40.965 C 31.972 41.1 31.159 41.212 30.295 41.302 C 29.99 41.324 29.685 41.369 29.38 41.391 C 28.847 41.436 28.288 41.459 27.729 41.481 C 27.17 41.504 26.611 41.504 26.052 41.504 C 24.527 41.504 23.054 41.436 21.732 41.302 C 21.555 41.279 21.402 41.257 21.25 41.257 C 20.919 41.212 20.614 41.19 20.31 41.145 L 19.852 41.078 C 19.7 41.055 19.522 41.033 19.369 40.988 L 22.241 43.163 L 22.241 43.163 Z " fill="rgb(168,9,9)"/><line x1="25.759" y1="30" x2="25.776" y2="49.293" vector-effect="non-scaling-stroke" stroke-width="1" stroke="rgb(168,9,9)" stroke-linejoin="miter" stroke-linecap="square" stroke-miterlimit="3"/></g></svg>