<?xml version="1.0" encoding="UTF-8" standalone="no"?><!-- Generator: Gravit.io --><svg xmlns="http://www.w3.org/2000/svg" xmlns:xlink="http://www.w3.org/1999/xlink" style="isolation:isolate" viewBox="0 0 50 50" width="50pt" height="50pt"><defs><clipPath id="_clipPath_EHfhr42oc4Xew2Qe1AWK1H12RBr67tNJ"><rect width="50" height="50"/></clipPath></defs><g clip-path="url(#_clipPath_EHfhr42oc4Xew2Qe1AWK1H12RBr67tNJ)"><path d=" M 8.317 6.971 C 8.614 6.801 8.986 6.778 9.311 6.96 L 14.351 9.88 C 13.078 11.024 11.866 12.236 10.722 13.509 L 7.802 8.469 C 7.543 8.03 7.71 7.515 8.034 7.191 C 8.108 7.085 8.213 7.011 8.317 6.971 L 8.317 6.971 Z  M 16.614 15.735 C 17.548 14.801 18.53 13.914 19.455 13.115 C 19.527 13.044 19.599 12.972 19.637 12.902 L 26.547 16.901 C 25.029 18.007 23.409 19.405 21.828 20.986 C 20.247 22.567 18.849 24.187 17.744 25.704 L 13.744 18.795 C 13.814 18.757 13.868 18.703 13.94 18.631 C 14.775 17.669 15.661 16.688 16.614 15.735 L 16.614 15.735 Z  M 25.984 25.106 C 27.961 23.13 30.022 21.418 31.758 20.316 C 31.864 20.242 31.953 20.152 32.027 20.046 L 40.337 24.834 C 39.783 25.071 39.173 25.395 38.525 25.789 C 36.546 27.008 34.237 28.904 32.028 31.113 C 31.291 31.85 30.606 32.567 29.953 33.315 L 28.51 31.872 C 28.352 31.713 28.081 31.73 27.901 31.91 C 27.722 32.089 27.705 32.36 27.863 32.519 L 29.354 34.009 C 29.044 34.382 28.735 34.755 28.459 35.126 L 24.479 31.146 C 24.32 30.988 24.05 31.005 23.852 31.202 C 23.673 31.382 23.656 31.653 23.814 31.811 L 27.873 35.87 C 27.45 36.452 27.06 37.033 26.706 37.577 C 26.311 38.225 25.987 38.835 25.75 39.388 L 20.963 31.079 C 21.068 31.005 21.14 30.934 21.214 30.828 C 22.278 29.161 23.99 27.1 25.984 25.106 L 25.984 25.106 Z  M 27.282 42.106 C 27.203 42.027 27.157 41.945 27.114 41.83 C 26.831 40.972 27.703 39.149 29.36 36.889 C 29.413 36.835 29.434 36.784 29.487 36.73 C 29.505 36.712 29.541 36.676 29.543 36.642 C 29.873 36.217 30.239 35.756 30.622 35.278 L 30.73 35.17 C 30.876 34.992 31.04 34.797 31.219 34.617 C 31.855 33.887 32.557 33.152 33.312 32.398 L 33.689 32.02 C 33.941 31.769 34.19 31.551 34.442 31.3 L 35.549 30.287 C 38.614 27.603 41.377 25.982 42.593 26.192 C 42.643 26.206 42.693 26.22 42.726 26.218 C 42.826 26.245 42.923 26.307 43.002 26.386 C 43.288 26.671 43.288 27.21 43.038 27.967 L 42.357 32.676 L 41.871 36.142 L 41.592 38.198 C 41.757 38.255 41.901 38.364 42.044 38.507 C 42.563 39.023 42.629 39.869 42.204 40.574 C 41.558 42.53 38.713 42.293 38.554 40.882 L 38.585 40.761 L 35.628 41.181 L 33.588 41.477 L 28.879 42.158 C 28.125 42.374 27.568 42.391 27.282 42.106 L 27.282 42.106 Z  M 35.451 39.962 L 37.049 39.728 L 39.037 39.452 C 39.138 39.193 39.29 38.914 39.505 38.699 C 39.739 38.465 40.002 38.297 40.277 38.213 L 40.555 36.191 L 40.789 34.593 L 41.299 31.007 C 40.873 31.623 40.378 32.277 39.83 32.951 C 39.63 33.183 39.447 33.43 39.247 33.661 C 38.901 34.07 38.522 34.482 38.142 34.893 C 37.763 35.304 37.368 35.699 36.973 36.094 C 35.895 37.172 34.805 38.167 33.776 39.006 C 33.634 39.116 33.51 39.208 33.403 39.315 C 33.137 39.517 32.906 39.717 32.659 39.901 L 32.288 40.177 C 32.164 40.269 32.022 40.378 31.883 40.455 L 35.451 39.962 L 35.451 39.962 Z " fill="rgb(168,9,9)"/><line x1="41.552" y1="30.086" x2="41.569" y2="49.379" vector-effect="non-scaling-stroke" stroke-width="1" stroke="rgb(168,9,9)" stroke-linejoin="miter" stroke-linecap="square" stroke-miterlimit="3"/></g></svg>