<?xml version="1.0" encoding="UTF-8" standalone="no"?><!-- Generator: Gravit.io --><svg xmlns="http://www.w3.org/2000/svg" xmlns:xlink="http://www.w3.org/1999/xlink" style="isolation:isolate" viewBox="0 0 50 50" width="50pt" height="50pt"><defs><clipPath id="_clipPath_nmse2Yihp5wA7HnCxNY0irrgsex1mtDU"><rect width="50" height="50"/></clipPath></defs><g clip-path="url(#_clipPath_nmse2Yihp5wA7HnCxNY0irrgsex1mtDU)"><path d=" M 43.054 7.445 C 43.224 7.742 43.247 8.114 43.065 8.44 L 40.145 13.48 C 39.001 12.207 37.789 10.995 36.516 9.851 L 41.556 6.931 C 41.995 6.672 42.51 6.839 42.834 7.162 C 42.939 7.236 43.013 7.342 43.054 7.445 L 43.054 7.445 Z  M 34.29 15.742 C 35.224 16.676 36.11 17.658 36.909 18.584 C 36.981 18.656 37.053 18.728 37.123 18.766 L 33.124 25.675 C 32.018 24.158 30.62 22.538 29.039 20.957 C 27.458 19.376 25.838 17.977 24.32 16.872 L 31.23 12.873 C 31.268 12.943 31.322 12.997 31.394 13.068 C 32.356 13.903 33.337 14.79 34.29 15.742 L 34.29 15.742 Z  M 24.919 25.113 C 26.895 27.089 28.607 29.15 29.709 30.886 C 29.783 30.992 29.873 31.082 29.979 31.156 L 25.191 39.465 C 24.954 38.911 24.63 38.301 24.236 37.654 C 23.017 35.674 21.121 33.366 18.911 31.156 C 18.175 30.42 17.458 29.735 16.71 29.082 L 18.153 27.639 C 18.312 27.48 18.295 27.21 18.115 27.03 C 17.935 26.85 17.665 26.833 17.506 26.992 L 16.016 28.482 C 15.643 28.173 15.27 27.863 14.899 27.587 L 18.878 23.608 C 19.037 23.449 19.02 23.178 18.823 22.981 C 18.643 22.801 18.372 22.784 18.214 22.943 L 14.155 27.002 C 13.572 26.578 12.992 26.188 12.448 25.834 C 11.8 25.44 11.19 25.116 10.636 24.879 L 18.945 20.091 C 19.019 20.197 19.091 20.269 19.197 20.343 C 20.864 21.407 22.924 23.119 24.919 25.113 L 24.919 25.113 Z  M 7.919 26.411 C 7.998 26.331 8.079 26.286 8.195 26.243 C 9.053 25.959 10.876 26.831 13.136 28.488 C 13.189 28.542 13.241 28.562 13.295 28.616 C 13.313 28.634 13.349 28.67 13.383 28.672 C 13.808 29.002 14.269 29.367 14.747 29.751 L 14.855 29.859 C 15.033 30.005 15.228 30.168 15.408 30.348 C 16.138 30.983 16.873 31.686 17.627 32.44 L 18.004 32.818 C 18.256 33.069 18.474 33.319 18.725 33.57 L 19.738 34.678 C 22.422 37.743 24.043 40.505 23.832 41.722 C 23.819 41.771 23.805 41.821 23.807 41.855 C 23.78 41.954 23.718 42.052 23.639 42.131 C 23.354 42.416 22.814 42.416 22.058 42.167 L 17.349 41.486 L 13.882 41 L 11.827 40.72 C 11.77 40.885 11.661 41.03 11.518 41.173 C 11.001 41.692 10.156 41.758 9.451 41.333 C 7.495 40.687 7.732 37.842 9.143 37.682 L 9.264 37.713 L 8.844 34.756 L 8.548 32.716 L 7.867 28.008 C 7.651 27.253 7.633 26.696 7.919 26.411 L 7.919 26.411 Z  M 10.062 34.58 L 10.297 36.178 L 10.572 38.166 C 10.831 38.266 11.11 38.418 11.326 38.634 C 11.56 38.867 11.728 39.131 11.812 39.405 L 13.834 39.683 L 15.432 39.918 L 19.018 40.428 C 18.402 40.002 17.748 39.506 17.074 38.959 C 16.842 38.759 16.595 38.575 16.363 38.375 C 15.954 38.03 15.543 37.65 15.132 37.271 C 14.721 36.892 14.326 36.496 13.931 36.101 C 12.853 35.023 11.858 33.934 11.019 32.904 C 10.909 32.763 10.817 32.639 10.709 32.531 C 10.508 32.266 10.308 32.034 10.124 31.787 L 9.848 31.416 C 9.756 31.292 9.646 31.151 9.57 31.011 L 10.062 34.58 L 10.062 34.58 Z " fill="rgb(168,9,9)"/><line x1="9.552" y1="30.086" x2="9.569" y2="49.379" vector-effect="non-scaling-stroke" stroke-width="1" stroke="rgb(168,9,9)" stroke-linejoin="miter" stroke-linecap="square" stroke-miterlimit="3"/></g></svg>