<?xml version="1.0" encoding="UTF-8" standalone="no"?><!-- Generator: Gravit.io --><svg xmlns="http://www.w3.org/2000/svg" xmlns:xlink="http://www.w3.org/1999/xlink" style="isolation:isolate" viewBox="0 0 50 50" width="50pt" height="50pt"><defs><clipPath id="_clipPath_CA4fnMCtQ7jWykzniHBZzO1xbcuhPhVB"><rect width="50" height="50"/></clipPath></defs><g clip-path="url(#_clipPath_CA4fnMCtQ7jWykzniHBZzO1xbcuhPhVB)"><path d=" M 48.946 24.682 C 48.857 24.352 48.61 24.073 48.251 23.971 L 42.623 22.472 C 42.714 24.181 42.714 25.895 42.623 27.604 L 48.251 26.105 C 48.745 25.978 48.991 25.495 48.991 25.038 C 49.014 24.911 48.991 24.784 48.946 24.682 L 48.946 24.682 Z  M 36.882 25.013 C 36.882 23.692 36.815 22.37 36.726 21.151 C 36.726 21.049 36.726 20.947 36.748 20.871 L 29.034 18.813 C 29.326 20.668 29.483 22.802 29.483 25.038 C 29.483 27.274 29.326 29.408 29.034 31.263 L 36.748 29.205 C 36.726 29.129 36.726 29.053 36.726 28.951 C 36.815 27.681 36.882 26.359 36.882 25.013 L 36.882 25.013 Z  M 23.63 25.013 C 23.63 22.218 23.383 19.55 22.935 17.543 C 22.913 17.416 22.913 17.289 22.935 17.162 L 13.674 14.672 C 13.898 15.231 14.1 15.891 14.28 16.628 C 14.818 18.889 15.109 21.862 15.109 24.987 C 15.109 26.029 15.087 27.02 15.02 28.011 L 17.06 28.011 C 17.284 28.011 17.464 28.214 17.464 28.468 C 17.464 28.722 17.284 28.925 17.06 28.925 L 14.952 28.925 C 14.907 29.408 14.863 29.891 14.795 30.348 L 20.424 30.348 C 20.648 30.348 20.827 30.552 20.827 30.831 C 20.827 31.085 20.648 31.288 20.424 31.288 L 14.683 31.288 C 14.571 32 14.436 32.686 14.302 33.321 C 14.123 34.058 13.921 34.718 13.697 35.277 L 22.957 32.787 C 22.935 32.66 22.935 32.559 22.957 32.432 C 23.383 30.501 23.63 27.833 23.63 25.013 L 23.63 25.013 Z  M 10.692 36.116 C 10.804 36.116 10.894 36.09 11.006 36.04 C 11.813 35.633 12.486 33.728 12.912 30.958 C 12.912 30.882 12.934 30.831 12.934 30.755 C 12.934 30.729 12.934 30.679 12.957 30.653 C 13.024 30.12 13.091 29.535 13.158 28.925 L 13.158 28.773 C 13.181 28.544 13.203 28.29 13.203 28.036 C 13.27 27.071 13.293 26.054 13.293 24.987 L 13.293 24.454 C 13.293 24.098 13.27 23.768 13.27 23.412 L 13.203 21.913 C 12.934 17.848 12.127 14.748 11.118 14.037 C 11.073 14.011 11.028 13.986 11.006 13.96 C 10.916 13.91 10.804 13.884 10.692 13.884 C 10.288 13.884 9.907 14.265 9.548 14.977 L 6.7 18.788 L 4.593 21.583 L 3.337 23.234 C 3.18 23.158 3 23.133 2.799 23.133 C 2.066 23.131 1.422 23.682 1.223 24.481 C 0.298 26.321 2.477 28.165 3.587 27.28 L 3.651 27.172 L 5.445 29.561 L 6.678 31.212 L 9.526 35.023 C 9.907 35.709 10.288 36.116 10.692 36.116 L 10.692 36.116 Z  M 6.431 28.824 L 5.467 27.528 L 4.256 25.927 C 4.368 25.673 4.458 25.368 4.458 25.064 C 4.458 24.733 4.391 24.428 4.256 24.174 L 5.489 22.548 L 6.454 21.252 L 8.629 18.356 C 8.494 19.093 8.382 19.906 8.292 20.77 C 8.27 21.075 8.225 21.379 8.203 21.684 C 8.158 22.218 8.135 22.777 8.113 23.336 C 8.091 23.895 8.091 24.454 8.091 25.013 C 8.091 26.537 8.158 28.011 8.292 29.332 C 8.315 29.51 8.337 29.662 8.337 29.815 C 8.382 30.145 8.405 30.45 8.449 30.755 L 8.517 31.212 C 8.539 31.365 8.562 31.542 8.606 31.695 L 6.431 28.824 L 6.431 28.824 Z " fill="rgb(168,9,9)"/><line x1="2.328" y1="28.534" x2="2.328" y2="48.276" vector-effect="non-scaling-stroke" stroke-width="1" stroke="rgb(168,9,9)" stroke-linejoin="miter" stroke-linecap="square" stroke-miterlimit="3"/></g></svg>